<svg width="13" height="7" fill="none" xmlns="http://www.w3.org/2000/svg"><path fill-rule="evenodd" clip-rule="evenodd" d="M8.245.205A.778.778 0 018.775 0c.199 0 .39.074.53.205l3 2.804c.14.131.22.31.22.495a.678.678 0 01-.22.496l-3 2.803A.779.779 0 018.778 7a.777.777 0 01-.524-.205.679.679 0 01-.22-.49.677.677 0 01.21-.493l1.72-1.607h-8.69A.778.778 0 01.745 4a.678.678 0 01-.22-.496c0-.186.08-.364.22-.495a.778.778 0 01.53-.206h8.69l-1.72-1.607a.678.678 0 01-.219-.495c0-.186.08-.364.22-.496z" fill="#fff"/></svg>