<svg width="33" height="33" fill="none" xmlns="http://www.w3.org/2000/svg"><circle cx="16.5" cy="16.5" r="16.5" fill="#C4C4C4"/><circle cx="16.5" cy="16.5" r="16.5" fill="url(#paint0_linear_50_1700)"/><path d="M24.374 11.422h-2.426c.197-.365.256-.82.144-1.288-.174-.73-.826-1.583-2.088-1.583-.93 0-2.054.78-2.641 1.245a9.22 9.22 0 00-.863.774 9.23 9.23 0 00-.863-.774c-.587-.465-1.711-1.245-2.641-1.245-1.262 0-1.914.853-2.088 1.583-.112.468-.054.923.144 1.288H8.626a.627.627 0 00-.626.626v2.557c0 .346.281.627.626.627h.63c.116 0 .21.093.21.208v8.383c0 .345.28.626.626.626h12.816a.627.627 0 00.627-.626V15.44c0-.115.093-.208.209-.208h.63a.627.627 0 00.626-.627v-2.557a.627.627 0 00-.626-.626zm-4.686 7.166c-.51.776-2.708 2.622-3.185 2.622-.466 0-2.684-1.852-3.19-2.622-.255-.386-.435-.81-.405-1.37.053-.989.862-1.806 1.853-1.806 1.018 0 1.611 1.087 1.74 1.087.145 0 .764-1.087 1.739-1.087.99 0 1.8.817 1.852 1.806.03.56-.15.983-.404 1.37z" fill="#14131E"/><defs><linearGradient id="paint0_linear_50_1700" x1="0" y1="16" x2="19.531" y2="32.219" gradientUnits="userSpaceOnUse"><stop stop-color="#21D4FD"/><stop offset="1" stop-color="#E40ECF"/></linearGradient></defs></svg>