<svg width="12" height="20" fill="none" xmlns="http://www.w3.org/2000/svg"><path fill-rule="evenodd" clip-rule="evenodd" d="M10.679 12.591c.207.223.322.525.322.84 0 .315-.115.617-.322.84l-4.406 4.75a1.063 1.063 0 01-.778.347c-.292 0-.572-.125-.779-.347L.311 14.27a1.238 1.238 0 01-.31-.836c.003-.311.119-.609.323-.83.204-.22.48-.344.77-.347a1.06 1.06 0 01.774.333l2.525 2.723V1.556c0-.315.116-.617.323-.84.207-.223.487-.348.779-.348.292 0 .572.125.779.348.206.223.322.525.322.84v13.758l2.526-2.723c.206-.222.486-.347.778-.347.292 0 .572.125.779.347z" fill="#21D4FD"/></svg>