<svg width="28" height="28" fill="none" xmlns="http://www.w3.org/2000/svg"><path d="M8.076 9.508A7.43 7.43 0 0114 6.563a7.39 7.39 0 015.26 2.178l.58.58 4.64-4.64-.58-.58A13.909 13.909 0 0014 0a13.91 13.91 0 00-9.9 4.1c-.24.24-.47.488-.69.742l4.666 4.666zM23.158 24.59c.254-.22.502-.45.741-.69A13.909 13.909 0 0028 14c0-.852-.077-1.705-.23-2.536l-.122-.673H13.18v6.563h7.462a7.405 7.405 0 01-2.144 2.576l4.66 4.66zm-6.118-3.797a7.452 7.452 0 01-8.964-2.3L3.41 23.157c.22.254.45.502.69.742A13.908 13.908 0 0014 28a13.9 13.9 0 007.846-2.401l-4.805-4.806zm-9.829-3.756A7.394 7.394 0 016.562 14c0-1.081.233-2.109.65-3.037l-4.81-4.81A13.9 13.9 0 000 14c0 2.84.84 5.549 2.402 7.847l4.81-4.81z" fill="#fff"/></svg>