<svg width="18" height="18" fill="none" xmlns="http://www.w3.org/2000/svg"><path d="M11.25 9.75a.75.75 0 00-.75.75v3a.75.75 0 01-.75.75H7.5V3c0-.64-.408-1.213-1.021-1.426L6.256 1.5H9.75a.75.75 0 01.75.75V4.5a.75.75 0 101.5 0V2.25C12 1.01 10.99 0 9.75 0H1.687c-.028 0-.052.013-.08.017C1.571.013 1.537 0 1.5 0 .673 0 0 .673 0 1.5V15c0 .64.408 1.213 1.022 1.426l4.513 1.504c.153.047.305.07.465.07.827 0 1.5-.673 1.5-1.5v-.75h2.25c1.24 0 2.25-1.01 2.25-2.25v-3a.75.75 0 00-.75-.75z" fill="#fff"/><path d="M17.78 6.97l-3-3a.75.75 0 00-1.28.53v2.25h-3a.75.75 0 000 1.5h3v2.25a.751.751 0 001.28.53l3-3a.75.75 0 000-1.06z" fill="#fff"/></svg>