<svg width="18" height="18" fill="#fff" xmlns="http://www.w3.org/2000/svg"><path d="M17.012 10.954l-1.41.18c-.116.357-.26.702-.427 1.03l.871 1.122a1.115 1.115 0 01-.091 1.484l-1.181 1.181a1.118 1.118 0 01-1.49.095l-1.119-.87a7.06 7.06 0 01-1.031.426l-.18 1.408c-.067.565-.546.99-1.114.99H8.16a1.123 1.123 0 01-1.115-.988l-.179-1.41a6.986 6.986 0 01-1.031-.427l-1.12.871a1.116 1.116 0 01-1.485-.091l-1.181-1.18a1.118 1.118 0 01-.095-1.49l.87-1.12a7 7 0 01-.426-1.031l-1.408-.18A1.123 1.123 0 010 9.84V8.16c0-.568.425-1.047.988-1.115l1.41-.179a7.24 7.24 0 01.426-1.03l-.87-1.122a1.115 1.115 0 01.091-1.484l1.182-1.18a1.119 1.119 0 011.488-.095l1.12.871a6.924 6.924 0 011.031-.427l.18-1.406A1.123 1.123 0 018.16 0h1.68c.568 0 1.047.425 1.114.988l.18 1.41c.357.116.702.26 1.03.426l1.122-.87a1.115 1.115 0 011.484.091l1.181 1.182c.407.394.448 1.034.095 1.488l-.87 1.12c.168.329.31.673.426 1.031l1.407.18c.565.067.99.546.99 1.114v1.68a1.12 1.12 0 01-.987 1.114zM9 5.25A3.754 3.754 0 005.25 9 3.754 3.754 0 009 12.75 3.754 3.754 0 0012.75 9 3.754 3.754 0 009 5.25z" fill="url(#paint0_linear_50_817)"/></svg>