<svg width="37" height="37" fill="none" xmlns="http://www.w3.org/2000/svg"><path fill-rule="evenodd" clip-rule="evenodd" d="M3.392 18.5c0 8.344 6.764 15.108 15.108 15.108 8.344 0 15.108-6.764 15.108-15.108 0-8.344-6.764-15.108-15.108-15.108-8.344 0-15.108 6.764-15.108 15.108zM18.5 0C8.283 0 0 8.283 0 18.5S8.283 37 18.5 37 37 28.717 37 18.5 28.717 0 18.5 0zm7.75 11.25l-.596 2.337c-.248.979-1.16 1.663-2.205 1.663H14l.596-2.34c.248-.976 1.157-1.66 2.202-1.66h9.452zm-12.97 7.495C13.526 17.722 14.424 17 15.456 17H22l-.589 2.452c-.245 1.027-1.146 1.749-2.178 1.749H16.92l-.773 3.297c-.248 1.026-1.15 1.752-2.185 1.752H11.5l1.78-7.505z" fill="url(#paint0_linear_50_393)"/><defs><linearGradient id="paint0_linear_50_393" x1="0" y1="52.973" x2="44.612" y2="-2.639" gradientUnits="userSpaceOnUse"><stop stop-color="#64E2FF"/><stop offset="1" stop-color="#00B4DD" stop-opacity=".69"/></linearGradient></defs></svg>